<svg width="105" height="68" viewBox="0 0 105 68" fill="none" xmlns="http://www.w3.org/2000/svg">
<g clip-path="url(#clip0_2005_3223)">
<path d="M86.2178 11C86.7658 11.5933 87.3013 12.2372 87.7983 12.8873C92.2162 18.8045 95.0018 25.9094 95.5546 33.1871C96.1455 40.4629 93.8013 47.8916 89.0782 53.5936C88.5542 54.2397 88.031 54.8422 87.454 55.4603C88.0779 54.8895 88.649 54.3288 89.2214 53.7185C94.3887 48.3638 97.1812 40.6389 96.5521 33.1168C95.9849 25.5955 92.8196 18.3825 87.9449 12.7664C87.3983 12.1504 86.8129 11.5461 86.2178 11Z" fill="#626262"/>
<path d="M19.3535 11C18.7866 11.5753 18.2306 12.2015 17.7129 12.8352C13.1061 18.6067 10.0926 25.6179 9.30495 32.8739C8.47934 40.1268 10.5824 47.6274 15.1189 53.479C15.6217 54.1417 16.1252 54.7607 16.682 55.3972C16.0768 54.8066 15.5241 54.2277 14.9717 53.5992C9.98003 48.0804 7.43847 40.2693 8.31021 32.7715C9.12005 25.2724 12.5167 18.1654 17.5702 12.7097C18.1365 12.1116 18.7411 11.5266 19.3535 11Z" fill="#626262"/>
<path d="M92.2178 12C92.7658 12.5933 93.3013 13.2372 93.7983 13.8873C98.2162 19.8045 101.002 26.9094 101.555 34.1871C102.146 41.4629 99.8013 48.8916 95.0782 54.5936C94.5542 55.2397 94.031 55.8422 93.454 56.4603C94.0779 55.8895 94.649 55.3288 95.2214 54.7185C100.389 49.3638 103.181 41.6389 102.552 34.1168C101.985 26.5955 98.8196 19.3825 93.9449 13.7664C93.3983 13.1504 92.8129 12.5461 92.2178 12Z" fill="#626262"/>
<path d="M12.8779 11.5622C12.311 12.1375 11.755 12.7637 11.2373 13.3974C6.63054 19.1689 3.61697 26.1801 2.82937 33.4361C2.00375 40.689 4.10684 48.1896 8.6433 54.0412C9.14612 54.7039 9.64965 55.3229 10.2064 55.9594C9.60124 55.3688 9.04851 54.7899 8.49612 54.1614C3.50444 48.6426 0.962882 40.8315 1.83463 33.3337C2.64447 25.8346 6.04112 18.7276 11.0947 13.2719C11.6609 12.6738 12.2655 12.0888 12.8779 11.5622Z" fill="#626262"/>
<g filter="url(#filter0_di_2005_3223)">
<rect x="18" width="68" height="68" rx="34" fill="#151515" shape-rendering="crispEdges"/>
<g clip-path="url(#clip1_2005_3223)">
<path d="M36.8633 44.1835L52.8401 17.18L69.3041 43.974L53.3777 41.1338L36.8633 44.1835Z" fill="#FFE226"/>
<path d="M36.8633 44.1836L53.3273 32.1271L69.3041 43.9741L53.6129 41.3182L36.8633 44.1836Z" fill="url(#paint0_linear_2005_3223)"/>
</g>
</g>
</g>
<defs>
<filter id="filter0_di_2005_3223" x="14" y="0" width="76" height="76" filterUnits="userSpaceOnUse" color-interpolation-filters="sRGB">
<feFlood flood-opacity="0" result="BackgroundImageFix"/>
<feColorMatrix in="SourceAlpha" type="matrix" values="0 0 0 0 0 0 0 0 0 0 0 0 0 0 0 0 0 0 127 0" result="hardAlpha"/>
<feOffset dy="4"/>
<feGaussianBlur stdDeviation="2"/>
<feComposite in2="hardAlpha" operator="out"/>
<feColorMatrix type="matrix" values="0 0 0 0 0 0 0 0 0 0 0 0 0 0 0 0 0 0 0.25 0"/>
<feBlend mode="normal" in2="BackgroundImageFix" result="effect1_dropShadow_2005_3223"/>
<feBlend mode="normal" in="SourceGraphic" in2="effect1_dropShadow_2005_3223" result="shape"/>
<feColorMatrix in="SourceAlpha" type="matrix" values="0 0 0 0 0 0 0 0 0 0 0 0 0 0 0 0 0 0 127 0" result="hardAlpha"/>
<feOffset/>
<feGaussianBlur stdDeviation="2.5"/>
<feComposite in2="hardAlpha" operator="arithmetic" k2="-1" k3="1"/>
<feColorMatrix type="matrix" values="0 0 0 0 0.880769 0 0 0 0 0.880769 0 0 0 0 0.880769 0 0 0 1 0"/>
<feBlend mode="normal" in2="shape" result="effect2_innerShadow_2005_3223"/>
</filter>
<linearGradient id="paint0_linear_2005_3223" x1="53.0837" y1="44.1836" x2="53.0837" y2="32.1271" gradientUnits="userSpaceOnUse">
<stop stop-color="#FCB427"/>
<stop offset="1" stop-color="#FCB325"/>
</linearGradient>
<clipPath id="clip0_2005_3223">
<rect width="105" height="68" fill="white"/>
</clipPath>
<clipPath id="clip1_2005_3223">
<rect width="42" height="31" fill="white" transform="translate(31 13.15)"/>
</clipPath>
</defs>
</svg>
