<svg width="35" height="35" viewBox="0 0 35 35" fill="none" xmlns="http://www.w3.org/2000/svg">
<path d="M27.6578 9.45778C23.5582 -2.0838 14.1133 2.25958 12.065 8.66619C11.8791 9.24765 10.7929 9.37886 10.5999 8.79973C10.5389 8.61681 10.3718 8.48357 10.1796 8.46855C4.8218 8.04989 4.46202 13.5555 5.33883 17.408C5.6426 18.7427 5.47761 20.1632 4.89304 21.401C2.1425 27.2249 7.45765 29.4664 11.3828 29.939C11.7918 29.9883 12.2046 30.0846 12.5887 30.2336C25.0935 35.0831 28.6597 29.2944 29.0228 24.4675C29.116 23.2287 29.5605 22.0188 30.3681 21.075C34.675 16.0424 31.923 12.6186 28.9712 10.9766C28.3715 10.6429 27.8875 10.1045 27.6578 9.45778Z" fill="white" stroke="white"/>
<path d="M13.8313 12.5838C12.9693 10.7041 13.2675 8.42915 14.5897 6.77961C15.9119 5.13007 18.2128 4.16433 20.4651 4.31341C22.7175 4.46248 24.8369 5.71989 25.8804 7.52498C26.0684 7.8523 26.2272 8.20554 26.211 8.57498C26.1948 8.94443 25.9679 9.32359 25.5855 9.44674C25.323 9.531 25.0313 9.48887 24.7591 9.44026C23.3656 9.19396 21.9818 8.82128 20.5624 8.85044C19.1429 8.88285 17.6327 9.41109 16.9522 10.5324C16.654 11.025 16.5341 11.5954 16.2101 12.075C15.886 12.5546 15.2313 12.9403 13.8313 12.5805V12.5838Z" fill="#FFFF00"/>
<path d="M7.45389 21.1588C6.50111 21.781 5.87241 22.7889 5.77843 23.8454C5.68121 24.9018 6.12195 25.9875 6.94834 26.7426C7.74556 27.4718 8.88954 27.8768 10.0238 27.8477C10.3349 27.8412 10.6525 27.7991 10.9215 27.6532C11.1905 27.5074 11.3946 27.2481 11.3784 26.9662C11.3493 26.412 10.6039 26.1819 10.0756 25.9C9.36917 25.5241 8.89602 24.8176 8.85065 24.0787C8.81824 23.5148 9.01593 22.9639 9.03861 22.4C9.0613 21.8361 8.83121 21.1944 7.45389 21.1555V21.1588Z" fill="#FFFF00"/>
<path d="M28.1136 12.3278C29.316 13.1347 30.1909 14.3306 30.5377 15.6463C30.8845 16.962 30.703 18.3847 30.0322 19.5935C29.8345 19.95 29.5882 20.2935 29.2382 20.5366C28.8882 20.7796 28.415 20.9028 27.9937 20.7861C27.3067 20.5949 26.9956 19.8625 26.9761 19.2143C26.9567 18.5662 27.1317 17.9083 26.9923 17.2731C26.8465 16.612 26.3863 16.0514 26.0007 15.4745C25.615 14.8977 25.291 14.2204 25.4627 13.5657C25.6442 12.869 26.4349 12.3505 28.1169 12.3278H28.1136Z" fill="#FFFF00"/>
<path d="M12.2891 14.2657C10.1826 11.5824 10.4354 7.64487 12.7169 5.08144C14.9984 2.51801 19.0493 1.42913 22.5752 2.26524C23.3984 2.45968 24.2021 2.75459 24.8924 3.20505C25.5438 3.62959 26.0817 4.187 26.5322 4.78653C27.7442 6.3907 28.3859 8.33838 28.5058 10.3314C29.841 10.5 31.0303 11.2713 31.7919 12.2759C32.5502 13.2805 32.91 14.499 32.9975 15.7143C33.1854 18.3393 31.9248 21.1912 29.5461 22.5296C29.8377 24.8921 29.6789 27.4814 28.0262 29.3351C27.1285 30.343 25.8646 31.0333 24.5586 31.5648C22.3387 32.4657 19.8789 32.9615 17.4581 32.7152C15.0373 32.4689 12.6748 31.4351 11.1905 29.6981" stroke="black" stroke-width="1.2963" stroke-miterlimit="10" stroke-linecap="round"/>
<path d="M10.3571 8.33839C9.21632 8.23144 8.36401 8.35135 7.39827 8.912C5.47003 10.0301 4.67928 11.6342 4.29039 13.6726C3.90151 15.7078 4.4978 17.8856 5.8978 19.5189" stroke="black" stroke-width="1.2963" stroke-miterlimit="10" stroke-linecap="round"/>
<path d="M8.59096 19.0296C7.37244 18.8838 6.12476 19.3537 5.24328 20.125C4.36504 20.8995 3.82707 21.9495 3.55809 23.0287C3.33772 23.9101 3.28263 24.8338 3.50624 25.7152C3.96966 27.5592 5.68402 29.0629 7.70624 29.5685C9.72846 30.074 11.9775 29.6236 13.6724 28.5088" stroke="black" stroke-width="1.2963" stroke-miterlimit="10" stroke-linecap="round"/>
<path d="M17.0078 27.8865C18.4823 28.606 20.2972 28.7615 21.8722 28.243C23.4472 27.7245 24.7435 26.5287 25.2166 25.0801" stroke="black" stroke-width="1.2963" stroke-miterlimit="10" stroke-linecap="round"/>
<path d="M15.4419 16.2233H20.7202V16.9655L16.9653 23.1667H15.7788L19.3677 17.2487H15.4419V16.2233Z" fill="black"/>
</svg>
