<svg width="36" height="50" viewBox="0 0 36 50" fill="none" xmlns="http://www.w3.org/2000/svg">
<rect x="4" y="22" width="28" height="28" rx="14" fill="black" fill-opacity="0.16"/>
<circle cx="18" cy="36" r="6" fill="#FFF34D"/>
<path d="M18 34C17.9146 34 17.7006 33.9771 17.5566 33.7655L14.9204 29.8899C14.3004 28.9785 13.4396 28.2655 12.4311 27.8282C7.25321 25.5823 3.9441 20.4866 4.00072 14.8461C4.03804 11.1254 5.50877 7.64226 8.14194 5.03809C10.7748 2.4342 14.2762 1 18 1H18C25.7196 1 32 7.27587 32 14.9899C32 20.5711 28.6875 25.6117 23.5611 27.8316C22.5583 28.2658 21.7002 28.9776 21.0796 29.89L18.4434 33.7655C18.2994 33.9771 18.0853 34 18 34Z" fill="#151515"/>
<path d="M17.9999 22.6897C22.0301 22.6897 25.2972 19.4226 25.2972 15.3924C25.2972 11.3623 22.0301 8.09514 17.9999 8.09514C13.9697 8.09514 10.7026 11.3623 10.7026 15.3924C10.7026 19.4226 13.9697 22.6897 17.9999 22.6897Z" fill="white"/>
</svg>
